<?xml version="1.0" encoding="utf-8"?>
<!-- Generator: Adobe Illustrator 23.0.3, SVG Export Plug-In . SVG Version: 6.00 Build 0)  -->
<svg version="1.1" id="Warstwa_2" xmlns="http://www.w3.org/2000/svg" xmlns:xlink="http://www.w3.org/1999/xlink" x="0px" y="0px"
	 viewBox="0 0 52 48" style="enable-background:new 0 0 52 48;" xml:space="preserve">
<style type="text/css">
	.st0{fill:#222F3E;}
</style>
<path class="st0" d="M49.6,16.4c-0.4-0.6-1.3-0.8-1.9-0.4l-3.5,1.9c-0.3-0.9-0.6-1.7-1-2.6l3.6-3.6c0.3-0.3,0.4-0.8,0.2-1.2
	c-0.2-0.4-0.6-0.6-1.1-0.5l-5.4,0.9c-0.9-1.1-1.9-2.1-3-3l0.7-2.4c0.1-0.4,0-0.9-0.4-1.1c-0.4-0.2-0.8-0.2-1.2,0l-2,1.5
	c-2.6-1.5-5.6-2.5-8.8-2.8l-0.8-2.4C24.8,0.3,24.4,0,24,0c-0.4,0-0.8,0.3-0.9,0.7l-0.8,2.4c-3.2,0.3-6.2,1.2-8.8,2.8l-2-1.5
	c-0.3-0.3-0.8-0.3-1.2,0C9.9,4.6,9.7,5,9.8,5.4l0.7,2.4c-3.8,3.2-6.5,7.7-7.3,12.8l-0.7-0.7c-0.6-0.6-1.5-0.6-2.1,0
	c-0.6,0.6-0.6,1.5,0,2.1L2.4,24l-1.9,1.9c-0.6,0.6-0.6,1.5,0,2.1c0.3,0.3,0.7,0.4,1.1,0.4c0.4,0,0.8-0.1,1.1-0.4l0.7-0.7
	c0.8,5.1,3.5,9.6,7.3,12.8l-0.7,2.4c-0.1,0.4,0,0.9,0.4,1.1c0.2,0.1,0.4,0.2,0.6,0.2c0.2,0,0.4-0.1,0.6-0.2l2-1.5
	c2.6,1.5,5.6,2.5,8.8,2.8l0.8,2.4c0.1,0.4,0.5,0.7,0.9,0.7c0.4,0,0.8-0.3,0.9-0.7l0.8-2.4c3.2-0.3,6.2-1.2,8.8-2.8l2,1.5
	c0.2,0.1,0.4,0.2,0.6,0.2c0.2,0,0.4-0.1,0.6-0.2c0.4-0.2,0.5-0.7,0.4-1.1l-0.7-2.4c1.1-0.9,2.1-1.9,3-3l5.4,0.9c0.1,0,0.1,0,0.2,0
	c0.4,0,0.7-0.2,0.9-0.5c0.2-0.4,0.1-0.9-0.2-1.2l-3.6-3.6c0.4-0.8,0.7-1.7,1-2.6l3.5,1.9c0.2,0.1,0.5,0.2,0.7,0.2
	c0.5,0,0.9-0.2,1.2-0.6c1.6-2.2,2.4-4.8,2.4-7.6S51.2,18.7,49.6,16.4z M9,23.5c0-0.9,0.3-1.8,0.8-2.5h7.5c0.6,0.9,0.9,1.8,0.7,3
	c-0.3,1.8-1.7,3.5-3.5,3.9C11.6,28.5,9,26.3,9,23.5z M24,42c-2.8,0-5.5-0.7-7.9-1.9c5-3.9,7.9-9.8,7.9-16.1s-2.9-12.3-7.9-16.1
	C18.5,6.7,21.2,6,24,6c9.9,0,18,8.1,18,18S33.9,42,24,42z"/>
<path class="st0" d="M30.3,31.1c-0.1-0.3-0.3-0.6-0.6-0.7s-0.6-0.1-0.9,0l-1.7,1c-0.3,0.2-0.5,0.4-0.5,0.8c0,0.3,0.1,0.6,0.3,0.8
	l2.4,2.1c0.2,0.2,0.4,0.3,0.7,0.3c0.2,0,0.3,0,0.5-0.1c0.4-0.2,0.6-0.6,0.5-1.1L30.3,31.1z"/>
<path class="st0" d="M30.5,12.7c-0.4-0.2-0.8-0.2-1.2,0.1L27,15c-0.2,0.2-0.4,0.5-0.3,0.8c0,0.3,0.2,0.6,0.5,0.8l1.7,1
	c0.2,0.1,0.3,0.1,0.5,0.1c0.1,0,0.3,0,0.4-0.1c0.3-0.1,0.5-0.4,0.6-0.7l0.6-3.1C31.1,13.4,30.9,13,30.5,12.7z"/>
<path class="st0" d="M36.3,23.1l-3-1C33,22,32.7,22,32.4,22.2C32.2,22.4,32,22.7,32,23v2c0,0.3,0.2,0.6,0.4,0.8
	c0.2,0.1,0.4,0.2,0.6,0.2c0.1,0,0.2,0,0.3-0.1l3-1c0.4-0.1,0.7-0.5,0.7-0.9S36.7,23.2,36.3,23.1z"/>
</svg>
