<?xml version="1.0" encoding="utf-8"?>
<!-- Generator: Adobe Illustrator 23.0.3, SVG Export Plug-In . SVG Version: 6.00 Build 0)  -->
<svg version="1.1" id="Warstwa_1" xmlns="http://www.w3.org/2000/svg" xmlns:xlink="http://www.w3.org/1999/xlink" x="0px" y="0px"
	 viewBox="0 0 48 48" style="enable-background:new 0 0 48 48;" xml:space="preserve">
<style type="text/css">
	.st0{fill:#222F3E;}
</style>
<g>
	<path class="st0" d="M24,2C11.9,2,2,11.9,2,24v17c0,2.8,2.2,5,5,5h17c12.1,0,22-9.9,22-22S36.1,2,24,2z M5.5,33
		c0-5.2,4.3-9.5,9.5-9.5h3.5c1.1,0,2-0.9,2-2V18c0-5.2,4.3-9.5,9.5-9.5s9.5,4.3,9.5,9.5s-4.3,9.5-9.5,9.5h-3.5c-1.1,0-2,0.9-2,2V33
		c0,5.2-4.3,9.5-9.5,9.5S5.5,38.2,5.5,33z"/>
	<path class="st0" d="M26.5,23H30c2.8,0,5-2.2,5-5s-2.2-5-5-5s-5,2.2-5,5v3.5C25,22.3,25.7,23,26.5,23z"/>
	<path class="st0" d="M20,33v-3.5c0-0.8-0.7-1.5-1.5-1.5H15c-2.8,0-5,2.2-5,5s2.2,5,5,5S20,35.8,20,33z"/>
</g>
</svg>
