<?xml version="1.0" encoding="utf-8"?>
<!-- Generator: Adobe Illustrator 23.0.3, SVG Export Plug-In . SVG Version: 6.00 Build 0)  -->
<svg version="1.1" id="Warstwa_1" xmlns="http://www.w3.org/2000/svg" xmlns:xlink="http://www.w3.org/1999/xlink" x="0px" y="0px"
	 viewBox="0 0 48 48" style="enable-background:new 0 0 48 48;" xml:space="preserve">
<style type="text/css">
	.st0{fill:#222F3E;}
</style>
<g>
	<path class="st0" d="M44.1,17.9c-0.1-0.4-0.4-0.7-0.8-0.7c-0.4,0-0.8,0.1-1,0.5c-0.7,1.2-1.3,2-1.8,2.6c-0.9,0.9-2.2,1.4-3.6,1.4
		c-3.1,0-5.9-2.5-7-3.6c-1.3-1.3-2.3-2.8-2.9-4.2c-1.1-2.5-0.8-4.9,0.8-6.4c0.5-0.5,1.4-1.1,2.6-1.8c0.3-0.2,0.5-0.6,0.5-1
		S30.5,4,30.1,3.9c-2-0.6-4-0.9-6.1-0.9C12.4,3,3,12.4,3,24c0,11.6,9.4,21,21,21c11.6,0,21-9.4,21-21C45,21.9,44.7,19.9,44.1,17.9z"
		/>
	<path class="st0" d="M29.7,12.8c0.4,1,1.3,2.2,2.3,3.2c1,1,2.2,1.8,3.2,2.3c0.7,0.3,1.2,0.4,1.7,0.4c0.8,0,1.2-0.3,1.5-0.6
		c2.2-2.2,6.2-12.6,6.6-13.8c0.1-0.4,0-0.8-0.2-1.1C44.4,3,44,2.9,43.6,3.1c-1.2,0.4-11.6,4.4-13.8,6.6C29.5,10.1,28.9,11,29.7,12.8
		z"/>
	<path class="st0" d="M4.4,7.8c0.1,0.3,0.4,0.6,0.8,0.6c0.1,0,0.1,0,0.2,0c0.3,0,0.6-0.1,0.7-0.3c0.6-0.7,1.3-1.4,2-2
		c0.3-0.2,0.4-0.6,0.3-0.9C8.3,4.8,8.1,4.5,7.8,4.4c-2-0.8-3.4-1.3-3.4-1.3C4,2.9,3.6,3,3.3,3.3C3,3.6,2.9,4,3.1,4.4
		C3.1,4.4,3.6,5.8,4.4,7.8z"/>
</g>
</svg>
