<?xml version="1.0" encoding="utf-8"?>
<!-- Generator: Adobe Illustrator 23.0.3, SVG Export Plug-In . SVG Version: 6.00 Build 0)  -->
<svg version="1.1" id="Warstwa_1" xmlns="http://www.w3.org/2000/svg" xmlns:xlink="http://www.w3.org/1999/xlink" x="0px" y="0px"
	 viewBox="0 0 48 48" style="enable-background:new 0 0 48 48;" xml:space="preserve">
<style type="text/css">
	.st0{fill:#222F3E;}
</style>
<g id="windows">
	<g id="_48-9">
		<path class="st0" d="M17.3,6.4L5.3,8C4.6,8.1,4,8.7,4,9.5v11C4,21.3,4.7,22,5.5,22h12c0.8,0,1.5-0.7,1.5-1.5V7.9
			c0-0.8-0.7-1.5-1.5-1.5C17.4,6.4,17.4,6.4,17.3,6.4z"/>
		<path class="st0" d="M43.5,3.4C43.2,3.1,42.7,3,42.3,3l-18,2.4C23.6,5.5,23,6.2,23,6.9v13.6c0,0.8,0.7,1.5,1.5,1.5h18
			c0.8,0,1.5-0.7,1.5-1.5v-16C44,4.1,43.8,3.7,43.5,3.4z"/>
		<path class="st0" d="M42.5,26h-18c-0.8,0-1.5,0.7-1.5,1.5v13.6c0,0.7,0.6,1.4,1.3,1.5l18,2.5h0.2c0.8,0,1.5-0.7,1.5-1.5l0,0v-16
			C44,26.7,43.3,26,42.5,26z"/>
		<path class="st0" d="M17.5,26h-12C4.7,26,4,26.7,4,27.5v11c0,0.8,0.6,1.4,1.3,1.5l12,1.6h0.2c0.8,0,1.5-0.7,1.5-1.5l0,0V27.5
			C19,26.7,18.3,26,17.5,26z"/>
	</g>
</g>
</svg>
