<?xml version="1.0" standalone="no"?>
<svg viewBox="0 0 200 200" xmlns="http://www.w3.org/2000/svg">
  <path fill="#222F3E" d="M34.8,-61.6C46.5,-53.5,58.4,-47,64.9,-37.1C71.4,-27.1,72.5,-13.5,75.2,1.5C77.8,16.6,82.1,33.3,76.5,44.8C70.9,56.3,55.4,62.7,41,70.9C26.6,79,13.3,88.9,-1.2,91C-15.8,93.2,-31.5,87.5,-44,78.2C-56.4,69,-65.5,56,-73.1,42.4C-80.7,28.7,-86.7,14.4,-86.7,0C-86.7,-14.3,-80.5,-28.6,-72.2,-40.9C-63.8,-53.3,-53.2,-63.6,-40.9,-71.4C-28.5,-79.1,-14.2,-84.3,-1.4,-82C11.5,-79.7,23.1,-69.8,34.8,-61.6Z" transform="translate(100 100)" />
</svg>
