<?xml version="1.0" standalone="no"?>
<svg viewBox="0 0 200 200" xmlns="http://www.w3.org/2000/svg">
  <path fill="#145595" d="M22.2,-44.2C29.9,-33.9,38.2,-30.4,46.7,-24.1C55.1,-17.9,63.6,-9,65.5,1.1C67.5,11.2,62.8,22.3,55.7,30.9C48.6,39.4,39.1,45.3,29.4,49C19.7,52.7,9.9,54.2,-1.4,56.5C-12.6,58.9,-25.2,62.2,-35.6,58.9C-46,55.7,-54.1,45.8,-59.3,34.9C-64.5,23.9,-66.8,12,-70.7,-2.3C-74.6,-16.5,-80.2,-33,-76,-45.6C-71.7,-58.2,-57.7,-66.8,-43.4,-73.4C-29.1,-79.9,-14.5,-84.3,-3.7,-78C7.2,-71.6,14.4,-54.5,22.2,-44.2Z" transform="translate(100 100)" />
</svg>
