<?xml version="1.0" encoding="UTF-8" standalone="no"?>
<!DOCTYPE svg PUBLIC "-//W3C//DTD SVG 1.1//EN" "http://www.w3.org/Graphics/SVG/1.1/DTD/svg11.dtd">
<svg width="100%" height="100%" viewBox="0 0 880 1002" version="1.1" xmlns="http://www.w3.org/2000/svg" xmlns:xlink="http://www.w3.org/1999/xlink" xml:space="preserve" xmlns:serif="http://www.serif.com/" style="fill-rule:evenodd;clip-rule:evenodd;stroke-linejoin:round;stroke-miterlimit:2;">
    <g transform="matrix(0.121274,-0.208846,0.861436,0.500224,-120.562,28.7072)">
        <rect x="185.412" y="443.417" width="188.892" height="386.45" style="fill:rgb(34,47,62);"/>
    </g>
    <g transform="matrix(0.12313,-0.207757,0.38433,0.227778,-90.3273,267.371)">
        <rect x="185.412" y="443.417" width="188.892" height="386.45" style="fill:rgb(34,47,62);"/>
    </g>
    <g transform="matrix(0.229669,0.000163663,-0.000881851,1.23751,182.729,-151.459)">
        <rect x="185.412" y="443.417" width="188.892" height="386.45" style="fill:rgb(34,47,62);"/>
    </g>
    <g transform="matrix(0.229669,0.000163663,-0.000788649,1.10672,685.238,-218.8)">
        <g transform="matrix(0.192825,3.13721e-20,-7.09867e-09,0.614406,302.129,170.979)">
            <rect x="185.412" y="443.417" width="188.892" height="386.45" style="fill:rgb(34,47,62);"/>
        </g>
        <g transform="matrix(0.732803,5.62602e-20,1.99359e-09,0.614406,222.548,170.979)">
            <rect x="185.412" y="443.417" width="188.892" height="386.45" style="fill:rgb(34,47,62);"/>
        </g>
    </g>
    <g transform="matrix(0.584391,0.000416437,-0.000446802,0.626999,660.973,-27.0661)">
        <rect x="185.412" y="443.417" width="188.892" height="386.45" style="fill:rgb(34,47,62);"/>
    </g>
    <g transform="matrix(0.114923,0.199205,-1.13053,0.652216,1337.62,129.649)">
        <rect x="185.412" y="443.417" width="188.892" height="386.45" style="fill:rgb(34,47,62);"/>
    </g>
    <g transform="matrix(0.114946,-0.199093,0.576471,0.332826,-50.525,516.46)">
        <rect x="185.412" y="443.417" width="188.892" height="386.45" style="fill:rgb(34,47,62);"/>
    </g>
    <g transform="matrix(0.244399,-4.48985e-05,0.000122287,0.665652,370.297,401.639)">
        <rect x="185.412" y="443.417" width="188.892" height="386.45" style="fill:rgb(34,47,62);"/>
    </g>
    <g transform="matrix(0.229893,-4.22336e-05,0.000119004,0.647784,569.071,81.57)">
        <rect x="185.412" y="443.417" width="188.892" height="386.45" style="fill:rgb(34,47,62);"/>
    </g>
    <g transform="matrix(-0.121825,-0.19496,0.549352,-0.343273,415.775,600.319)">
        <rect x="185.412" y="443.417" width="188.892" height="386.45" style="fill:rgb(34,47,62);"/>
    </g>
    <g transform="matrix(-0.124654,-0.206846,0.456636,-0.275189,83.7796,564.228)">
        <rect x="185.412" y="443.417" width="188.892" height="386.45" style="fill:rgb(34,47,62);"/>
    </g>
    <g transform="matrix(-0.372888,-0.457623,0.580117,-0.351908,-118.429,593.392)">
        <rect x="185.412" y="443.417" width="188.892" height="386.45" style="fill:rgb(34,47,62);"/>
    </g>
    <g transform="matrix(1.03248,0,0,0.940619,-2.86382,4.12773)">
        <path d="M427.038,416.749L513.099,471.289L513.099,580.369L427.038,634.908L340.977,580.369L340.977,471.289L427.038,416.749Z" style="fill:rgb(34,47,62);"/>
    </g>
    <g transform="matrix(0.447932,2.13889,-0.25762,0.922419,192.762,11.9402)">
        <path d="M12.91,308.975L148.386,543.438L12.91,777.901L-122.566,543.438L12.91,308.975Z" style="fill:rgb(34,47,62);"/>
    </g>
    <g transform="matrix(1.63149,-1.41885,0.938313,-0.237007,128.714,954.047)">
        <path d="M12.91,308.975L148.386,543.438L12.91,777.901L-122.566,543.438L12.91,308.975Z" style="fill:rgb(34,47,62);"/>
    </g>
    <g transform="matrix(2.05912,0.693644,0.666542,0.677174,213.174,-217.68)">
        <path d="M12.91,308.975L148.386,543.438L12.91,777.901L-122.566,543.438L12.91,308.975Z" style="fill:rgb(34,47,62);"/>
    </g>
    <g transform="matrix(-0.414262,0.171377,-0.116024,-0.280458,688.87,1184.26)">
        <path d="M355.678,878.254L574.836,1299.99L136.519,1299.99L355.678,878.254Z" style="fill:rgb(34,47,62);"/>
    </g>
    <g transform="matrix(0.0716578,-0.451853,0.303821,0.0481819,-297.696,369.383)">
        <g transform="matrix(1.00438,5.56332e-17,1.57278e-09,0.965157,-2.51714,45.2954)">
            <path d="M355.678,878.254L574.836,1299.99L136.519,1299.99L355.678,878.254Z" style="fill:rgb(34,47,62);"/>
        </g>
        <g transform="matrix(0.342359,3.21066,-2.15882,0.509168,899.397,767.572)">
            <rect x="0.043" y="251.571" width="0.094" height="0.074" style="fill:rgb(34,47,62);"/>
        </g>
    </g>
    <g transform="matrix(0.0718666,-0.453169,0.29118,0.0461772,-302.675,384.539)">
        <path d="M355.678,878.254L574.836,1299.99L136.519,1299.99L355.678,878.254Z" style="fill:rgb(34,47,62);"/>
    </g>
    <g transform="matrix(0.447952,-0.00346836,0.00101603,0.131225,60.485,10.7362)">
        <path d="M355.678,878.254L574.836,1299.99L136.519,1299.99L355.678,878.254Z" style="fill:rgb(34,47,62);"/>
    </g>
    <g transform="matrix(0.215963,-0.237781,0.165641,0.150443,-87.6159,131.428)">
        <path d="M355.678,878.254L574.836,1299.99L136.519,1299.99L355.678,878.254Z" style="fill:rgb(34,47,62);"/>
    </g>
    <g transform="matrix(0.0352106,0.160385,-0.132452,0.0290782,417.435,98.3034)">
        <path d="M355.678,878.254L574.836,1299.99L136.519,1299.99L355.678,878.254Z" style="fill:rgb(34,47,62);"/>
    </g>
    <g transform="matrix(0.215963,-0.237781,0.165641,0.150443,-129.046,176.311)">
        <path d="M355.678,878.254L574.836,1299.99L136.519,1299.99L355.678,878.254Z" style="fill:rgb(34,47,62);"/>
    </g>
    <g transform="matrix(-0.433278,-0.25454,0.13438,-0.228741,341.476,1210.62)">
        <path d="M355.678,878.254L574.836,1299.99L136.519,1299.99L355.678,878.254Z" style="fill:rgb(34,47,62);"/>
    </g>
    <g transform="matrix(-0.126155,-0.37229,0.175985,-0.0596347,114.781,1060.74)">
        <path d="M355.678,878.254L574.836,1299.99L136.519,1299.99L355.678,878.254Z" style="fill:rgb(34,47,62);"/>
    </g>
    <g transform="matrix(0.0846051,-0.0524849,0.099198,0.159906,129.04,625.989)">
        <path d="M355.678,878.254L574.836,1299.99L136.519,1299.99L355.678,878.254Z" style="fill:rgb(34,47,62);"/>
    </g>
</svg>
