<?xml version="1.0" encoding="UTF-8" standalone="no"?>
<!DOCTYPE svg PUBLIC "-//W3C//DTD SVG 1.1//EN" "http://www.w3.org/Graphics/SVG/1.1/DTD/svg11.dtd">
<svg width="100%" height="100%" viewBox="0 0 880 1002" version="1.1" xmlns="http://www.w3.org/2000/svg" xmlns:xlink="http://www.w3.org/1999/xlink" xml:space="preserve" xmlns:serif="http://www.serif.com/" style="fill-rule:evenodd;clip-rule:evenodd;stroke-linejoin:round;stroke-miterlimit:2;">
    <g transform="matrix(0.121274,-0.208846,0.861436,0.500224,-120.562,28.7072)">
        <rect x="185.412" y="443.417" width="188.892" height="386.45" style="fill:rgb(34,47,62);"/>
    </g>
    <g transform="matrix(0.12313,-0.207757,0.38433,0.227778,-90.3273,267.371)">
        <rect x="185.412" y="443.417" width="188.892" height="386.45" style="fill:rgb(34,47,62);"/>
    </g>
    <g transform="matrix(0.229669,0.000163663,-0.000881851,1.23751,182.729,-151.459)">
        <rect x="185.412" y="443.417" width="188.892" height="386.45" style="fill:rgb(34,47,62);"/>
    </g>
    <g transform="matrix(0.229669,0.000163663,-0.000788649,1.10672,685.238,-218.8)">
        <g transform="matrix(0.192825,3.13721e-20,-7.09867e-09,0.614406,302.129,170.979)">
            <rect x="185.412" y="443.417" width="188.892" height="386.45" style="fill:rgb(34,47,62);"/>
        </g>
        <g transform="matrix(0.732803,5.62602e-20,1.99359e-09,0.614406,222.548,170.979)">
            <rect x="185.412" y="443.417" width="188.892" height="386.45" style="fill:rgb(34,47,62);"/>
        </g>
    </g>
    <g transform="matrix(0.592094,0.000421926,-0.00044284,0.621439,659.517,-22.4664)">
        <rect x="185.412" y="443.417" width="188.892" height="386.45" style="fill:rgb(34,47,62);"/>
    </g>
    <g transform="matrix(0.114923,0.199205,-1.13053,0.652216,1337.62,129.649)">
        <rect x="185.412" y="443.417" width="188.892" height="386.45" style="fill:rgb(34,47,62);"/>
    </g>
    <g transform="matrix(0.114946,-0.199093,0.576471,0.332826,-50.525,516.46)">
        <rect x="185.412" y="443.417" width="188.892" height="386.45" style="fill:rgb(34,47,62);"/>
    </g>
    <g transform="matrix(0.244399,-4.48985e-05,0.000122287,0.665652,370.297,401.639)">
        <rect x="185.412" y="443.417" width="188.892" height="386.45" style="fill:rgb(34,47,62);"/>
    </g>
    <g transform="matrix(0.229893,-4.22336e-05,0.000119004,0.647784,569.071,81.57)">
        <rect x="185.412" y="443.417" width="188.892" height="386.45" style="fill:rgb(34,47,62);"/>
    </g>
    <g transform="matrix(-0.121825,-0.19496,0.549352,-0.343273,415.775,600.319)">
        <rect x="185.412" y="443.417" width="188.892" height="386.45" style="fill:rgb(34,47,62);"/>
    </g>
    <g transform="matrix(-0.124654,-0.206846,0.456636,-0.275189,83.7796,564.228)">
        <rect x="185.412" y="443.417" width="188.892" height="386.45" style="fill:rgb(34,47,62);"/>
    </g>
    <g transform="matrix(-0.371507,-0.455928,0.577085,-0.350068,-116.169,591.551)">
        <rect x="185.412" y="443.417" width="188.892" height="386.45" style="fill:rgb(34,47,62);"/>
    </g>
    <g transform="matrix(1.03248,0,0,0.940619,-2.86382,4.12773)">
        <path d="M427.038,416.749L513.099,471.289L513.099,580.369L427.038,634.908L340.977,580.369L340.977,471.289L427.038,416.749Z" style="fill:rgb(34,47,62);"/>
    </g>
    <g transform="matrix(0.447932,2.13889,-0.25762,0.922419,192.762,11.9402)">
        <g transform="matrix(0.989835,2.18109e-16,-7.58116e-19,0.9857,1.2861,5.02602)">
            <path d="M12.91,308.975L148.386,543.438L12.91,777.901L-122.566,543.438L12.91,308.975Z" style="fill:rgb(34,47,62);"/>
        </g>
        <g transform="matrix(0.956666,-2.2183,0.267185,0.464562,-187.599,422.057)">
            <rect x="4.203" y="256.247" width="2.273" height="2.71" style="fill:rgb(34,47,62);"/>
        </g>
    </g>
    <g transform="matrix(1.63149,-1.41885,0.938313,-0.237007,128.714,954.047)">
        <path d="M12.91,308.975L148.386,543.438L12.91,777.901L-122.566,543.438L12.91,308.975Z" style="fill:rgb(34,47,62);"/>
    </g>
    <g transform="matrix(2.05912,0.693644,0.666542,0.677174,213.174,-217.68)">
        <path d="M12.91,308.975L148.386,543.438L12.91,777.901L-122.566,543.438L12.91,308.975Z" style="fill:rgb(34,47,62);"/>
    </g>
    <g transform="matrix(-0.414262,0.171377,-0.116024,-0.280458,688.87,1184.26)">
        <path d="M355.678,878.254L574.836,1299.99L136.519,1299.99L355.678,878.254Z" style="fill:rgb(34,47,62);"/>
    </g>
    <g transform="matrix(0.0716578,-0.451853,0.303821,0.0481819,-297.696,369.383)">
        <g transform="matrix(1.01816,5.56332e-17,2.12546e-09,0.965157,-6.25551,48.0335)">
            <path d="M355.678,878.254L574.836,1299.99L136.519,1299.99L355.678,878.254Z" style="fill:rgb(34,47,62);"/>
        </g>
        <g transform="matrix(-0.096503,-0.0767536,0.186449,-0.518514,301.884,1051.05)">
            <path d="M39.339,256.168L65.227,285.963L13.452,285.963L39.339,256.168Z" style="fill:rgb(34,47,62);"/>
        </g>
        <g transform="matrix(-0.113687,0.0265586,-0.0658865,-0.623819,376.239,1072.96)">
            <path d="M39.339,256.168L65.227,285.963L13.452,285.963L39.339,256.168Z" style="fill:rgb(34,47,62);"/>
        </g>
        <g transform="matrix(-0.113687,0.0265586,-0.0631871,-0.598261,374.698,1067.58)">
            <path d="M39.339,256.168L65.227,285.963L13.452,285.963L39.339,256.168Z" style="fill:rgb(34,47,62);"/>
        </g>
    </g>
    <g transform="matrix(0.450841,-0.00349073,0.00101943,0.131664,58.82,10.1783)">
        <path d="M355.678,878.254L574.836,1299.99L136.519,1299.99L355.678,878.254Z" style="fill:rgb(34,47,62);"/>
    </g>
    <g transform="matrix(0.215963,-0.237781,0.165641,0.150443,-87.6159,131.428)">
        <path d="M355.678,878.254L574.836,1299.99L136.519,1299.99L355.678,878.254Z" style="fill:rgb(34,47,62);"/>
    </g>
    <g transform="matrix(0.0352106,0.160385,-0.132452,0.0290782,417.435,98.3034)">
        <path d="M355.678,878.254L574.836,1299.99L136.519,1299.99L355.678,878.254Z" style="fill:rgb(34,47,62);"/>
    </g>
    <g transform="matrix(0.215963,-0.237781,0.165641,0.150443,-129.046,176.311)">
        <path d="M355.678,878.254L574.836,1299.99L136.519,1299.99L355.678,878.254Z" style="fill:rgb(34,47,62);"/>
    </g>
    <g transform="matrix(-0.433278,-0.25454,0.13438,-0.228741,341.476,1210.62)">
        <path d="M355.678,878.254L574.836,1299.99L136.519,1299.99L355.678,878.254Z" style="fill:rgb(34,47,62);"/>
    </g>
    <g transform="matrix(-0.126155,-0.37229,0.175985,-0.0596347,114.781,1060.74)">
        <path d="M355.678,878.254L574.836,1299.99L136.519,1299.99L355.678,878.254Z" style="fill:rgb(34,47,62);"/>
    </g>
    <g transform="matrix(0.0846051,-0.0524849,0.099198,0.159906,129.04,625.989)">
        <path d="M355.678,878.254L574.836,1299.99L136.519,1299.99L355.678,878.254Z" style="fill:rgb(34,47,62);"/>
    </g>
</svg>
