<svg xmlns="http://www.w3.org/2000/svg" xmlns:xlink="http://www.w3.org/1999/xlink" width="300" height="300" viewBox="0 0 300 300">
  <defs>
    <filter id="Rectangle_1" x="71" y="200" width="194" height="84" filterUnits="userSpaceOnUse">
      <feOffset dy="3" input="SourceAlpha"/>
      <feGaussianBlur stdDeviation="3" result="blur"/>
      <feFlood flood-opacity="0.161"/>
      <feComposite operator="in" in2="blur"/>
      <feComposite in="SourceGraphic"/>
    </filter>
    <filter id="Rectangle_2" x="71" y="129" width="194" height="84" filterUnits="userSpaceOnUse">
      <feOffset dy="3" input="SourceAlpha"/>
      <feGaussianBlur stdDeviation="3" result="blur-2"/>
      <feFlood flood-opacity="0.161"/>
      <feComposite operator="in" in2="blur-2"/>
      <feComposite in="SourceGraphic"/>
    </filter>
    <filter id="Rectangle_3" x="71" y="58" width="194" height="84" filterUnits="userSpaceOnUse">
      <feOffset dy="3" input="SourceAlpha"/>
      <feGaussianBlur stdDeviation="3" result="blur-3"/>
      <feFlood flood-opacity="0.161"/>
      <feComposite operator="in" in2="blur-3"/>
      <feComposite in="SourceGraphic"/>
    </filter>
    <filter id="Ellipse_1" x="35" y="22" width="90" height="90" filterUnits="userSpaceOnUse">
      <feOffset dy="3" input="SourceAlpha"/>
      <feGaussianBlur stdDeviation="3" result="blur-4"/>
      <feFlood flood-opacity="0.161"/>
      <feComposite operator="in" in2="blur-4"/>
      <feComposite in="SourceGraphic"/>
    </filter>
    <clipPath id="clip-Server-Linux">
      <rect width="300" height="300"/>
    </clipPath>
  </defs>
  <g id="Server-Linux" clip-path="url(#clip-Server-Linux)">
    <rect width="300" height="300" fill="rgba(255,255,255,0)"/>
    <g transform="matrix(1, 0, 0, 1, 0, 0)" filter="url(#Rectangle_1)">
      <rect id="Rectangle_1-2" data-name="Rectangle 1" width="176" height="66" rx="5" transform="translate(80 206)" fill="#fff"/>
    </g>
    <g transform="matrix(1, 0, 0, 1, 0, 0)" filter="url(#Rectangle_2)">
      <rect id="Rectangle_2-2" data-name="Rectangle 2" width="176" height="66" rx="5" transform="translate(80 135)" fill="#fff"/>
    </g>
    <g transform="matrix(1, 0, 0, 1, 0, 0)" filter="url(#Rectangle_3)">
      <rect id="Rectangle_3-2" data-name="Rectangle 3" width="176" height="66" rx="5" transform="translate(80 64)" fill="#fff"/>
    </g>
    <g transform="matrix(1, 0, 0, 1, 0, 0)" filter="url(#Ellipse_1)">
      <circle id="Ellipse_1-2" data-name="Ellipse 1" cx="36" cy="36" r="36" transform="translate(44 28)" fill="#fff"/>
    </g>
    <g id="server-linux-2" data-name="server-linux" transform="translate(44.09 27.698)">
      <g id="Groupe_1" data-name="Groupe 1" transform="translate(-272.997 -228.554)">
        <path id="Tracé_1" data-name="Tracé 1" d="M479.8,331.154h-166a5.029,5.029,0,0,1-5-5v-56a5.029,5.029,0,0,1,5-5h166a5.03,5.03,0,0,1,5,5v56A5.03,5.03,0,0,1,479.8,331.154Z" fill="#222f3e"/>
      </g>
      <g id="Groupe_2" data-name="Groupe 2" transform="translate(-21.739 -9.171)">
        <rect id="Rectangle_1-3" data-name="Rectangle 1" width="44" height="5" transform="translate(83.539 60.771)" fill="#3f3d56"/>
      </g>
      <g id="Groupe_3" data-name="Groupe 3" transform="translate(-21.739 -9.171)">
        <circle id="Ellipse_1-3" data-name="Ellipse 1" cx="3" cy="3" r="3" transform="translate(182.539 60.771)" fill="#18b389"/>
      </g>
      <g id="Groupe_4" data-name="Groupe 4" transform="translate(-21.739 -9.171)">
        <circle id="Ellipse_2" data-name="Ellipse 2" cx="3" cy="3" r="3" transform="translate(192.539 60.771)" fill="#fb8c00"/>
      </g>
      <g id="Groupe_5" data-name="Groupe 5" transform="translate(-21.739 -9.171)">
        <circle id="Ellipse_3" data-name="Ellipse 3" cx="3" cy="3" r="3" transform="translate(202.539 60.771)" fill="#ff5252"/>
      </g>
      <g id="Groupe_6" data-name="Groupe 6" transform="translate(-272.997 -228.554)">
        <path id="Tracé_2" data-name="Tracé 2" d="M479.8,402.154h-166a5.029,5.029,0,0,1-5-5v-56a5.029,5.029,0,0,1,5-5h166a5.03,5.03,0,0,1,5,5v56A5.03,5.03,0,0,1,479.8,402.154Z" fill="#222f3e"/>
      </g>
      <g id="Groupe_7" data-name="Groupe 7" transform="translate(-21.739 -9.171)">
        <rect id="Rectangle_2-3" data-name="Rectangle 2" width="44" height="5" transform="translate(83.539 131.771)" fill="#3f3d56"/>
      </g>
      <g id="Groupe_8" data-name="Groupe 8" transform="translate(-21.739 -9.171)">
        <circle id="Ellipse_4" data-name="Ellipse 4" cx="3" cy="3" r="3" transform="translate(182.539 131.771)" fill="#ff5252"/>
      </g>
      <g id="Groupe_9" data-name="Groupe 9" transform="translate(-21.739 -9.171)">
        <circle id="Ellipse_5" data-name="Ellipse 5" cx="3" cy="3" r="3" transform="translate(192.539 131.771)" fill="#18b389"/>
      </g>
      <g id="Groupe_10" data-name="Groupe 10" transform="translate(-21.739 -9.171)">
        <circle id="Ellipse_6" data-name="Ellipse 6" cx="3" cy="3" r="3" transform="translate(202.539 131.771)" fill="#fb8c00"/>
      </g>
      <g id="Groupe_11" data-name="Groupe 11" transform="translate(-272.997 -228.554)">
        <path id="Tracé_3" data-name="Tracé 3" d="M479.8,473.154h-166a5.029,5.029,0,0,1-5-5v-56a5.029,5.029,0,0,1,5-5h166a5.03,5.03,0,0,1,5,5v56A5.03,5.03,0,0,1,479.8,473.154Z" fill="#222f3e"/>
      </g>
      <g id="Groupe_12" data-name="Groupe 12" transform="translate(-21.739 -9.171)">
        <rect id="Rectangle_3-3" data-name="Rectangle 3" width="44" height="5" transform="translate(83.539 202.771)" fill="#3f3d56"/>
      </g>
      <g id="Groupe_13" data-name="Groupe 13" transform="translate(-21.739 -9.171)">
        <circle id="Ellipse_7" data-name="Ellipse 7" cx="3" cy="3" r="3" transform="translate(182.539 202.771)" fill="#fb8c00"/>
      </g>
      <g id="Groupe_14" data-name="Groupe 14" transform="translate(-21.739 -9.171)">
        <circle id="Ellipse_8" data-name="Ellipse 8" cx="3" cy="3" r="3" transform="translate(192.539 202.771)" fill="#ff5252"/>
      </g>
      <g id="Groupe_15" data-name="Groupe 15" transform="translate(-21.739 -9.171)">
        <circle id="Ellipse_9" data-name="Ellipse 9" cx="3" cy="3" r="3" transform="translate(202.539 202.771)" fill="#18b389"/>
      </g>
      <g id="Groupe_16" data-name="Groupe 16" transform="translate(0.019 0.004)">
        <ellipse id="Ellipse_10" data-name="Ellipse 10" cx="36.165" cy="36.447" rx="36.165" ry="36.447" fill="#f2cf61"/>
      </g>
      <g id="Groupe_17" data-name="Groupe 17" transform="translate(0.019 0.004)">
        <path id="Tracé_4" data-name="Tracé 4" d="M61.564,62.025c-.037-.1-.078-.193-.116-.29s-.075-.189-.113-.284-.081-.2-.121-.3-.079-.194-.117-.292-.079-.195-.117-.292-.079-.195-.117-.292-.079-.194-.117-.292-.079-.194-.117-.292-.079-.194-.117-.292-.078-.194-.117-.292-.077-.193-.116-.29-.079-.2-.118-.294-.078-.194-.117-.292-.078-.194-.117-.292-.078-.195-.117-.292-.078-.195-.117-.292-.075-.187-.112-.281-.081-.2-.12-.3-.079-.195-.117-.292-.078-.194-.117-.29-.079-.2-.117-.294-.079-.195-.117-.292-.079-.195-.117-.292-.079-.194-.117-.292-.079-.194-.117-.292-.079-.194-.117-.292-.079-.194-.117-.292-.079-.194-.117-.292-.077-.194-.116-.29-.079-.2-.118-.294-.079-.194-.117-.292-.079-.195-.117-.292-.075-.188-.112-.281-.081-.2-.121-.3-.078-.194-.117-.292-.078-.195-.117-.292-.078-.195-.117-.292-.078-.194-.117-.292-.077-.193-.116-.29-.079-.2-.118-.294-.078-.194-.117-.292-.078-.194-.117-.292-.078-.194-.117-.292-.078-.194-.117-.292-.078-.194-.117-.292-.078-.195-.116-.292-.079-.195-.117-.292-.075-.186-.112-.278-.081-.2-.121-.3-.078-.195-.117-.292-.078-.195-.117-.292-.078-.194-.117-.292-.078-.194-.117-.292-.078-.194-.117-.292-.078-.194-.117-.292-.077-.194-.117-.292-.077-.195-.117-.292-.077-.194-.116-.29-.079-.2-.118-.294-.077-.195-.116-.292-.078-.195-.117-.292-.078-.194-.117-.292-.076-.187-.112-.281-.081-.2-.121-.3-.079-.194-.117-.292-.079-.194-.117-.292-.077-.192-.116-.289-.08-.2-.118-.294-.079-.194-.117-.292-.078-.194-.117-.292-.078-.194-.117-.292-.078-.194-.117-.292-.078-.194-.117-.292-.078-.195-.117-.292-.078-.195-.117-.292-.078-.194-.117-.292-.077-.193-.116-.29-.076-.189-.114-.284-.081-.2-.12-.3-.079-.195-.117-.292-.079-.195-.117-.292-.079-.195-.117-.292-.079-.194-.117-.292-.079-.194-.117-.292a26.432,26.432,0,0,0-4.12-6.912c-.009-.021-.02-.041-.03-.062-.037-.1-.075-.2-.117-.292s-.075-.2-.117-.292-.075-.2-.117-.292-.074-.2-.117-.292-.074-.2-.117-.29-.074-.2-.117-.293-.073-.193-.115-.287-.075-.2-.118-.3-.075-.2-.117-.292-.075-.2-.117-.292-.075-.2-.117-.292-.075-.2-.117-.292-.075-.2-.117-.292-.075-.2-.117-.292-.074-.2-.117-.29-.075-.2-.117-.293-.075-.2-.117-.292-.075-.2-.117-.292-.075-.2-.117-.292-.075-.2-.117-.292-.075-.2-.117-.292-.073-.193-.115-.287-.076-.2-.119-.3-.075-.2-.117-.292-.075-.2-.117-.292-.074-.2-.117-.29-.074-.2-.117-.293-.075-.2-.116-.292-.075-.2-.117-.292-.075-.2-.117-.292-.075-.2-.117-.292-.075-.2-.117-.292-.075-.2-.117-.292-.075-.2-.117-.292-.075-.2-.117-.292-.074-.2-.117-.29-.073-.194-.115-.288-.076-.2-.119-.3-.074-.2-.117-.292-.074-.2-.117-.292-.074-.2-.117-.292-.074-.2-.116-.292-.075-.2-.117-.292a6.435,6.435,0,0,0-6.024-4.05A6.542,6.542,0,0,0,30.1,20.2c-.072.884.6,6.577.767,9.29-3.219,3.038-8.725,10.595-8.427,17.691l.1.115c-2.456.667-5.963,4.141-4.879,6.675.023.052.05.1.074.154s.024.093.043.138.05.1.074.154.024.093.043.138.05.1.074.154.024.093.043.138.05.1.074.154.024.093.043.138.05.1.074.154.024.093.043.138.05.1.074.154.024.093.043.138.049.1.072.15.024.1.044.142.05.1.074.153.024.095.043.139.05.1.074.154.024.093.043.138.05.1.074.154.024.093.043.138.05.1.074.154.024.093.043.138.05.1.074.154.023.093.043.138.05.1.074.154.023.093.043.138.05.1.074.154.023.093.043.138.05.1.074.154.023.093.043.138.05.1.074.154.023.093.043.138.05.1.074.154.023.093.043.138.05.1.074.154.023.093.043.139.05.1.074.154.023.093.043.138.05.1.074.154.023.093.043.138.05.1.074.154.023.093.042.139.049.1.072.15.024.1.044.142.051.1.074.154.024.093.043.138.051.1.074.154.024.093.043.139.05.1.074.154.024.093.043.138.05.1.074.154.024.093.043.138.05.1.074.154.024.093.043.139.05.1.074.154.024.093.043.138.05.1.074.154.024.094.043.139.05.1.074.154.024.093.043.139.05.1.074.154.024.093.043.138.05.1.074.154.024.093.043.138.05.1.074.154.024.093.043.138.05.1.074.154.024.093.043.138.05.1.074.154.024.093.043.138.05.1.074.154.024.093.043.138.049.1.072.151.024.095.044.141.051.1.075.154.024.093.042.138.05.1.075.153.024.094.042.139.051.1.075.154.024.093.042.138.051.1.075.154.024.093.042.138.051.1.074.154.024.093.043.138.051.1.074.154.024.093.043.138.051.1.074.154.024.093.043.138.051.1.074.154.024.093.043.138.051.1.074.154.024.093.043.138.051.1.074.154.024.093.043.138.051.1.074.154.024.093.043.138.05.1.074.153.024.095.043.139.051.1.074.154.024.093.043.139.051.1.074.154.024.093.043.138.05.1.073.15.024.1.044.142.05.1.075.154.023.093.042.139.05.1.075.154.023.093.042.138.05.1.075.154.023.093.042.138.05.1.074.154.024.093.043.139.05.1.074.154.024.093.043.138.05.1.074.154.024.093.043.138c.006.013.012.026.019.039a36.683,36.683,0,0,0,11.706,1.932,35.91,35.91,0,0,0,25.5-10.609Q61.617,62.154,61.564,62.025Z" fill="#e6c45c"/>
      </g>
      <g id="Groupe_18" data-name="Groupe 18" transform="translate(0.019 0.004)">
        <path id="Tracé_5" data-name="Tracé 5" d="M30.726,57.167c2.236.953,7.99,1.6,14.133-.7l7.524-10.1c2.733-10.064-8.05-19.092-8.393-19.834A62.376,62.376,0,0,1,42.98,20.2a6.348,6.348,0,0,0-6.441-6.248A6.542,6.542,0,0,0,30.1,20.2c-.072.884.6,6.577.767,9.29-3.219,3.038-8.725,10.595-8.427,17.691Z" fill="#263740"/>
      </g>
      <g id="Groupe_19" data-name="Groupe 19" transform="translate(0.019 0.004)">
        <path id="Tracé_6" data-name="Tracé 6" d="M43.991,26.529A62.258,62.258,0,0,1,42.981,20.2a6.348,6.348,0,0,0-6.441-6.248,6.461,6.461,0,0,0-1.124.1A6.3,6.3,0,0,1,40.722,20.2a62.376,62.376,0,0,0,1.01,6.329c.342.741,11.125,9.769,8.393,19.834L42.6,56.465A24.848,24.848,0,0,1,35.152,58a24.524,24.524,0,0,0,9.708-1.539l7.523-10.1C55.116,36.3,44.333,27.27,43.991,26.529Z" fill="#1e2c33"/>
      </g>
      <g id="Groupe_20" data-name="Groupe 20" transform="translate(0.019 0.004)">
        <path id="Tracé_7" data-name="Tracé 7" d="M45.515,58.484C44.078,56,44.277,48,45.96,46.169c2.36-.718,8.351-.581,8.853,2.659C55.6,53.888,49,59.748,45.515,58.484Z" fill="#f5f5f5"/>
      </g>
      <g id="Groupe_21" data-name="Groupe 21" transform="translate(0.019 0.004)">
        <path id="Tracé_8" data-name="Tracé 8" d="M54.813,48.829c-.377-2.435-3.852-3.118-6.558-3,2.46.1,5.1.9,5.428,3,.676,4.342-4.092,9.269-7.659,9.781C49.6,59.2,55.564,53.652,54.813,48.829Z" fill="#e6e6e6"/>
      </g>
      <g id="Groupe_22" data-name="Groupe 22" transform="translate(0.019 0.004)">
        <path id="Tracé_9" data-name="Tracé 9" d="M30.762,57.567c-.095-2.849-3.875-9.433-6.947-10.312-2.185-.691-7.456,3.687-6.159,6.717C19.68,58.694,28.454,60.394,30.762,57.567Z" fill="#f5f5f5"/>
      </g>
      <g id="Groupe_23" data-name="Groupe 23" transform="translate(0.019 0.004)">
        <path id="Tracé_10" data-name="Tracé 10" d="M23.815,47.255a2.184,2.184,0,0,0-1.121,0c3.07.89,6.842,7.464,6.937,10.31a4.644,4.644,0,0,1-3.38,1.355c1.94.11,3.662-.315,4.51-1.355C30.667,54.718,26.886,48.133,23.815,47.255Z" fill="#e6e6e6"/>
      </g>
      <g id="Groupe_24" data-name="Groupe 24" transform="translate(0.019 0.004)">
        <path id="Tracé_11" data-name="Tracé 11" d="M33.855,26.623A8.211,8.211,0,0,1,36.8,24.711a7.134,7.134,0,0,1,3.5.534c.507,2.825-1.212,2.161-2.836,4.89C34.89,28.549,34.211,28.592,33.855,26.623Z" fill="#ffd464"/>
      </g>
    </g>
  </g>
</svg>
