<svg xmlns="http://www.w3.org/2000/svg" xmlns:xlink="http://www.w3.org/1999/xlink" width="300" height="300" viewBox="0 0 300 300">
  <defs>
    <filter id="Rectangle_1" x="71" y="200" width="194" height="84" filterUnits="userSpaceOnUse">
      <feOffset dy="3" input="SourceAlpha"/>
      <feGaussianBlur stdDeviation="3" result="blur"/>
      <feFlood flood-opacity="0.161"/>
      <feComposite operator="in" in2="blur"/>
      <feComposite in="SourceGraphic"/>
    </filter>
    <filter id="Rectangle_2" x="71" y="129" width="194" height="84" filterUnits="userSpaceOnUse">
      <feOffset dy="3" input="SourceAlpha"/>
      <feGaussianBlur stdDeviation="3" result="blur-2"/>
      <feFlood flood-opacity="0.161"/>
      <feComposite operator="in" in2="blur-2"/>
      <feComposite in="SourceGraphic"/>
    </filter>
    <filter id="Rectangle_3" x="71" y="58" width="194" height="84" filterUnits="userSpaceOnUse">
      <feOffset dy="3" input="SourceAlpha"/>
      <feGaussianBlur stdDeviation="3" result="blur-3"/>
      <feFlood flood-opacity="0.161"/>
      <feComposite operator="in" in2="blur-3"/>
      <feComposite in="SourceGraphic"/>
    </filter>
    <filter id="Ellipse_1" x="35" y="22" width="90" height="90" filterUnits="userSpaceOnUse">
      <feOffset dy="3" input="SourceAlpha"/>
      <feGaussianBlur stdDeviation="3" result="blur-4"/>
      <feFlood flood-opacity="0.161"/>
      <feComposite operator="in" in2="blur-4"/>
      <feComposite in="SourceGraphic"/>
    </filter>
    <clipPath id="clip-Server-Windows">
      <rect width="300" height="300"/>
    </clipPath>
  </defs>
  <g id="Server-Windows" clip-path="url(#clip-Server-Windows)">
    <rect width="300" height="300" fill="rgba(255,255,255,0)"/>
    <g transform="matrix(1, 0, 0, 1, 0, 0)" filter="url(#Rectangle_1)">
      <rect id="Rectangle_1-2" data-name="Rectangle 1" width="176" height="66" rx="5" transform="translate(80 206)" fill="#fff"/>
    </g>
    <g transform="matrix(1, 0, 0, 1, 0, 0)" filter="url(#Rectangle_2)">
      <rect id="Rectangle_2-2" data-name="Rectangle 2" width="176" height="66" rx="5" transform="translate(80 135)" fill="#fff"/>
    </g>
    <g transform="matrix(1, 0, 0, 1, 0, 0)" filter="url(#Rectangle_3)">
      <rect id="Rectangle_3-2" data-name="Rectangle 3" width="176" height="66" rx="5" transform="translate(80 64)" fill="#fff"/>
    </g>
    <g transform="matrix(1, 0, 0, 1, 0, 0)" filter="url(#Ellipse_1)">
      <circle id="Ellipse_1-2" data-name="Ellipse 1" cx="36" cy="36" r="36" transform="translate(44 28)" fill="#fff"/>
    </g>
    <g id="server-windows-2" data-name="server-windows" transform="translate(44.1 27.7)">
      <g id="Groupe_25" data-name="Groupe 25" transform="translate(-272.997 -228.554)">
        <path id="Tracé_12" data-name="Tracé 12" d="M479.8,331.154h-166a5.029,5.029,0,0,1-5-5v-56a5.029,5.029,0,0,1,5-5h166a5.03,5.03,0,0,1,5,5v56A5.03,5.03,0,0,1,479.8,331.154Z" fill="#222f3e"/>
      </g>
      <g id="Groupe_26" data-name="Groupe 26" transform="translate(-21.739 -9.171)">
        <rect id="Rectangle_4" data-name="Rectangle 4" width="44" height="5" transform="translate(83.539 60.771)" fill="#3f3d56"/>
      </g>
      <g id="Groupe_27" data-name="Groupe 27" transform="translate(-21.739 -9.171)">
        <circle id="Ellipse_11" data-name="Ellipse 11" cx="3" cy="3" r="3" transform="translate(182.539 60.771)" fill="#18b389"/>
      </g>
      <g id="Groupe_28" data-name="Groupe 28" transform="translate(-21.739 -9.171)">
        <circle id="Ellipse_12" data-name="Ellipse 12" cx="3" cy="3" r="3" transform="translate(192.539 60.771)" fill="#fb8c00"/>
      </g>
      <g id="Groupe_29" data-name="Groupe 29" transform="translate(-21.739 -9.171)">
        <circle id="Ellipse_13" data-name="Ellipse 13" cx="3" cy="3" r="3" transform="translate(202.539 60.771)" fill="#ff5252"/>
      </g>
      <g id="Groupe_30" data-name="Groupe 30" transform="translate(-272.997 -228.554)">
        <path id="Tracé_13" data-name="Tracé 13" d="M479.8,402.154h-166a5.029,5.029,0,0,1-5-5v-56a5.029,5.029,0,0,1,5-5h166a5.03,5.03,0,0,1,5,5v56A5.03,5.03,0,0,1,479.8,402.154Z" fill="#222f3e"/>
      </g>
      <g id="Groupe_31" data-name="Groupe 31" transform="translate(-21.739 -9.171)">
        <rect id="Rectangle_5" data-name="Rectangle 5" width="44" height="5" transform="translate(83.539 131.771)" fill="#3f3d56"/>
      </g>
      <g id="Groupe_32" data-name="Groupe 32" transform="translate(-21.739 -9.171)">
        <circle id="Ellipse_14" data-name="Ellipse 14" cx="3" cy="3" r="3" transform="translate(182.539 131.771)" fill="#ff5252"/>
      </g>
      <g id="Groupe_33" data-name="Groupe 33" transform="translate(-21.739 -9.171)">
        <circle id="Ellipse_15" data-name="Ellipse 15" cx="3" cy="3" r="3" transform="translate(192.539 131.771)" fill="#18b389"/>
      </g>
      <g id="Groupe_34" data-name="Groupe 34" transform="translate(-21.739 -9.171)">
        <circle id="Ellipse_16" data-name="Ellipse 16" cx="3" cy="3" r="3" transform="translate(202.539 131.771)" fill="#fb8c00"/>
      </g>
      <g id="Groupe_35" data-name="Groupe 35" transform="translate(-272.997 -228.554)">
        <path id="Tracé_14" data-name="Tracé 14" d="M479.8,473.154h-166a5.029,5.029,0,0,1-5-5v-56a5.029,5.029,0,0,1,5-5h166a5.03,5.03,0,0,1,5,5v56A5.03,5.03,0,0,1,479.8,473.154Z" fill="#222f3e"/>
      </g>
      <g id="Groupe_36" data-name="Groupe 36" transform="translate(-21.739 -9.171)">
        <rect id="Rectangle_6" data-name="Rectangle 6" width="44" height="5" transform="translate(83.539 202.771)" fill="#3f3d56"/>
      </g>
      <g id="Groupe_37" data-name="Groupe 37" transform="translate(-21.739 -9.171)">
        <circle id="Ellipse_17" data-name="Ellipse 17" cx="3" cy="3" r="3" transform="translate(182.539 202.771)" fill="#fb8c00"/>
      </g>
      <g id="Groupe_38" data-name="Groupe 38" transform="translate(-21.739 -9.171)">
        <circle id="Ellipse_18" data-name="Ellipse 18" cx="3" cy="3" r="3" transform="translate(192.539 202.771)" fill="#ff5252"/>
      </g>
      <g id="Groupe_39" data-name="Groupe 39" transform="translate(-21.739 -9.171)">
        <circle id="Ellipse_19" data-name="Ellipse 19" cx="3" cy="3" r="3" transform="translate(202.539 202.771)" fill="#18b389"/>
      </g>
      <g id="Groupe_40" data-name="Groupe 40" transform="translate(0 0)">
        <ellipse id="Ellipse_20" data-name="Ellipse 20" cx="36.15" cy="36.449" rx="36.15" ry="36.449" fill="#00729e"/>
      </g>
      <g id="Groupe_41" data-name="Groupe 41" transform="translate(16.712 16.79)">
        <path id="Tracé_15" data-name="Tracé 15" d="M0,5.567,15.887,3.385l.007,15.452-15.88.091Zm15.88,15.05.012,15.465-15.88-2.2V20.514ZM17.806,3.1,38.871,0V18.641l-21.066.169Zm21.07,17.663,0,18.557-21.066-3-.029-15.594Z" fill="#263740"/>
      </g>
    </g>
  </g>
</svg>
